<?xml version="1.0" encoding="iso-8859-1"?>
<!-- Generator: Adobe Illustrator 19.0.0, SVG Export Plug-In . SVG Version: 6.00 Build 0)  -->
<svg xmlns="http://www.w3.org/2000/svg" xmlns:xlink="http://www.w3.org/1999/xlink" version="1.1" id="Capa_1" x="0px" y="0px" viewBox="0 0 512 512" style="enable-background:new 0 0 512 512;" xml:space="preserve" width="512px" height="512px">
<g>
	<g>
		<path d="M375.875,225.946c-5.518,0-9.997,4.479-9.997,9.997s4.479,9.997,9.997,9.997c5.518,0,9.997-4.479,9.997-9.997    S381.394,225.946,375.875,225.946z" fill="#FFFFFF"/>
	</g>
</g>
<g>
	<g>
		<path d="M500.706,9.148C465.295-26.265,340.209,50.63,298.678,78.492c-5.411,3.634-5.84,1.596-14.787,2.127    c-0.045,0.001-0.57,0.028-0.579,0.029c-0.088,0.006-0.431,0.036-0.563,0.053c-14.88,1.183-29.408,8.165-40.969,19.726    c-18.951,18.951-16.515,34.142-21.493,38.851c-60.282,57.432-56.253,54.997-61.42,56.404    c-11.127,3.048-21.567,9.216-30.189,17.837c-11.086,11.086-18.046,25.076-19.595,39.386c-0.516,4.739-1.81,5.826-4.399,9.195    c-34.644,45.429-74.258,107.179-93.784,160.96c-13.965,38.463-14.384,64.628-1.245,77.766    c26.637,26.637,103.029-0.779,137.902-15.83c70.537-30.445,143.523-80.44,200.247-137.169    c56.711-56.706,106.692-129.794,137.125-200.523C499.93,112.447,527.374,35.814,500.706,9.148z M309.818,95.094    c11.172-7.496,22.427-14.667,33.537-21.38c16.574,12.222,30.511,25.496,39.59,37.779c10.027,13.566,9.651,19.971,9.162,20.669    c-0.492,0.703-6.415,3.251-22.706-1.594c-21.367-6.357-44.647-20.371-62.335-33.793C307.99,96.261,308.909,95.704,309.818,95.094z     M230.147,157.511c21.487,13.665,42.771,31.773,57.982,49.492c17.623,20.529,20.439,32.838,19.021,35.297    c-2.381,4.123-13.09,6.814-31.638,3.539c-20.644-3.646-45.483-13.43-69.937-27.548c-8.183-4.728-15.975-9.754-23.3-14.997    L230.147,157.511z M115.55,280.897c8.154,4.383,16.399,9.474,24.597,15.207c18.828,13.185,34.729,27.908,44.777,41.455    c10.125,13.651,9.755,20.091,9.26,20.798c-0.492,0.702-6.42,3.25-22.706-1.594c-16.167-4.809-35.44-14.718-54.271-27.903    c-8.288-5.802-15.978-11.885-22.96-18.143C101.062,300.722,108.196,290.738,115.55,280.897z M466.563,139.403    c-29.469,68.489-77.908,139.304-132.895,194.288c-55.006,55.01-125.729,103.468-194.033,132.949    c-43.948,18.969-75.205,25.33-94.407,25.329c-11.225,0-18.333-2.176-21.435-5.279c-10.984-10.983,0.776-68.766,59.281-159.165    c6.991,6.113,14.57,12.049,22.665,17.715c20.545,14.384,41.866,25.283,60.038,30.688c15.488,4.607,35.515,7.139,44.783-6.099    c5.139-7.334,7.649-20.952-9.577-44.179c-11.294-15.227-28.827-31.536-49.373-45.924c-8.254-5.773-16.575-10.95-24.843-15.482    c1.091-2.797,1.829-5.859,2.19-9.18c1.061-9.799,5.98-19.532,13.854-27.406c6.091-6.091,13.312-10.471,21.515-12.746    c9.638,7.318,20.122,14.264,31.246,20.692c32.473,18.749,68.596,31.76,95.016,31.76c15.58,0,27.785-4.526,33.875-15.068    c15.717-27.244-35.558-80.791-82.679-111.078c1.4-4.213,2.636-15.158,14.129-26.651c7.109-7.108,15.968-11.881,24.813-13.47    c22.56,19.781,54.509,40.17,82.973,48.637c15.503,4.612,35.519,7.135,44.786-6.103c14.05-20.072-12.607-54.15-46.481-80.833    c76.531-43.377,116.321-47.751,124.561-39.51C494.988,31.704,496.609,69.576,466.563,139.403z" fill="#FFFFFF"/>
	</g>
</g>
<g>
	<g>
		<path d="M358.749,260.571c-4.276-3.494-10.574-2.859-14.066,1.417c-12.269,15.016-25.468,29.605-39.298,43.435    c-11.182,11.192-23.109,22.149-35.453,32.565c-4.22,3.561-4.753,9.868-1.193,14.087c3.561,4.219,9.867,4.753,14.087,1.193    c12.774-10.78,25.124-22.124,36.699-33.711c14.279-14.277,27.95-29.385,40.641-44.919    C363.658,270.362,363.024,264.065,358.749,260.571z" fill="#FFFFFF"/>
	</g>
</g>
<g>
</g>
<g>
</g>
<g>
</g>
<g>
</g>
<g>
</g>
<g>
</g>
<g>
</g>
<g>
</g>
<g>
</g>
<g>
</g>
<g>
</g>
<g>
</g>
<g>
</g>
<g>
</g>
<g>
</g>
</svg>
